{"glyphs":{":":{"x_min":0,"x_max":259,"ha":259,"o":"m 85 115 q 113 115 128 103 q 143 90 143 66 q 143 29 126 10 q 108 -8 73 -8 q 47 -8 33 6 q 19 20 19 45 q 19 77 37 96 q 55 115 85 115 z m 143 461 q 171 461 187 448 q 202 436 202 412 q 202 376 185 357 q 168 338 135 338 q 106 338 92 351 q 77 365 77 391 q 77 423 95 442 q 113 461 143 461 z"},"$":{"x_min":0,"x_max":500,"ha":500,"o":"m 246 253 l 212 49 q 251 60 275 91 q 298 121 298 161 q 298 188 285 211 q 272 233 246 253 z m 266 598 q 230 588 210 562 q 189 537 189 502 q 189 481 200 463 q 211 445 237 423 z m 287 721 l 325 721 l 312 646 q 348 645 385 639 q 421 633 458 622 l 437 506 q 387 551 354 574 q 321 598 304 600 l 269 390 l 327 344 q 365 313 385 276 q 406 239 406 201 q 406 122 348 64 q 290 6 205 3 l 192 -76 l 153 -76 l 166 0 q 136 2 99 8 q 62 15 14 26 l 38 153 q 90 100 122 74 q 154 49 173 45 l 213 284 q 138 351 115 387 q 93 424 93 467 q 93 542 141 590 q 190 639 274 647 z"},"?":{"x_min":0,"x_max":417,"ha":417,"o":"m 144 110 q 171 110 189 93 q 206 77 206 51 q 206 23 187 7 q 168 -9 135 -9 q 105 -9 90 5 q 74 19 74 45 q 74 74 94 92 q 113 110 144 110 z m 354 371 l 305 322 q 291 308 265 285 q 199 223 195 193 l 191 160 l 132 160 l 135 198 q 139 235 193 312 q 202 325 206 331 l 271 426 q 289 452 298 479 q 307 505 307 531 q 307 570 288 594 q 270 617 238 617 q 207 617 122 546 q 81 512 56 492 l 84 645 q 127 653 166 658 q 205 662 241 662 q 336 662 386 627 q 435 592 435 524 q 435 488 415 450 q 394 411 354 371 z"},"<":{"x_min":0,"x_max":833,"ha":833,"o":"m 704 574 l 704 484 l 248 298 l 704 112 l 704 23 l 129 259 l 129 337 z"},"'":{"x_min":0,"x_max":163,"ha":163,"o":"m 42 701 l 122 701 l 122 429 l 42 429 z"},"=":{"x_min":0,"x_max":833,"ha":833,"o":"m 124 238 l 709 238 l 709 157 l 124 157 z m 124 440 l 709 440 l 709 358 l 124 358 z"},"a":{"x_min":0,"x_max":479,"ha":479,"o":"m 319 400 q 308 405 298 407 q 288 410 278 410 q 253 410 232 401 q 212 391 195 372 q 165 338 145 276 q 125 213 125 150 q 125 114 137 94 q 149 75 171 75 q 187 75 210 85 q 234 95 265 115 z m 342 434 l 441 464 l 375 97 q 374 90 373 86 q 372 81 372 78 q 372 73 375 71 q 379 69 392 69 l 426 69 q 384 28 353 10 q 321 -8 294 -8 q 275 -8 263 2 q 251 12 251 27 q 251 37 252 46 q 253 56 255 65 l 262 102 q 209 42 173 17 q 137 -8 104 -8 q 60 -8 34 28 q 9 64 9 128 q 9 199 29 264 q 50 329 87 378 q 121 423 161 445 q 201 467 250 467 q 276 467 299 459 q 321 451 342 434 z"},"L":{"x_min":0,"x_max":433,"ha":433,"o":"m 91 655 l 288 655 q 243 608 231 538 q 230 535 230 533 l 149 46 l 216 46 q 279 46 404 156 l 408 159 l 366 0 l -16 0 q 10 24 24 50 q 39 77 47 127 l 121 565 q 121 566 122 569 q 123 581 123 584 q 123 602 100 640 q 94 649 91 655 z"},"3":{"x_min":0,"x_max":500,"ha":500,"o":"m 267 334 q 346 327 389 290 q 432 252 432 191 q 432 102 361 45 q 289 -12 174 -12 q 127 -12 79 -4 q 32 5 -18 22 l 8 165 q 22 149 46 122 q 123 36 172 36 q 230 36 268 78 q 305 120 305 186 q 305 248 271 280 q 237 312 159 324 q 252 360 302 412 q 351 465 351 527 q 351 565 325 592 q 300 618 264 618 q 247 618 229 610 q 212 603 193 587 l 81 492 l 106 644 q 155 655 199 660 q 242 666 280 666 q 374 666 424 630 q 474 594 474 527 q 474 463 422 415 q 371 367 267 334 z"},";":{"x_min":0,"x_max":259,"ha":259,"o":"m -11 -120 q 19 -87 37 -57 q 55 -27 61 0 l 58 0 q 37 0 25 11 q 14 22 14 42 q 14 74 32 94 q 50 114 79 114 q 108 114 124 99 q 139 84 139 54 q 139 -14 95 -64 q 52 -115 -11 -120 z m 143 461 q 171 461 186 448 q 202 436 202 412 q 202 376 185 357 q 167 338 134 338 q 106 338 91 351 q 77 365 77 391 q 77 423 95 442 q 113 461 143 461 z"},"J":{"x_min":0,"x_max":280,"ha":280,"o":"m 95 655 l 293 655 q 247 608 235 534 l 235 533 l 157 62 q 142 -30 128 -70 q 114 -111 92 -136 q 62 -170 17 -188 q -29 -206 -87 -206 q -109 -206 -133 -203 q -156 -200 -181 -194 l -159 -69 q -141 -85 -113 -112 q -65 -159 -48 -159 q -18 -159 0 -123 q 18 -86 35 18 l 123 545 q 125 554 125 562 q 126 570 126 577 q 126 604 97 651 z"},"V":{"x_min":0,"x_max":523,"ha":523,"o":"m 23 655 l 216 655 q 200 632 193 617 q 186 603 186 591 q 186 583 187 574 q 188 564 189 551 l 233 104 l 472 578 q 477 587 479 594 q 481 602 481 608 q 481 617 476 628 q 470 639 458 655 l 610 655 q 566 619 539 569 l 538 568 l 235 16 l 144 -13 l 76 557 q 76 562 75 568 q 74 574 74 575 q 74 588 61 610 q 47 631 23 655 z"},"\"":{"x_min":0,"x_max":314,"ha":314,"o":"m 193 701 l 273 701 l 273 429 l 193 429 z m 42 701 l 122 701 l 122 429 l 42 429 z"},"7":{"x_min":0,"x_max":500,"ha":500,"o":"m 121 655 l 537 655 q 426 475 337 311 q 248 146 182 0 l 27 0 l 426 562 l 228 562 q 204 562 170 542 q 137 522 88 478 z"},"S":{"x_min":0,"x_max":463,"ha":463,"o":"m 453 637 l 431 516 q 360 580 330 598 q 300 616 276 616 q 234 616 203 585 q 172 554 172 511 q 172 489 186 467 q 201 446 243 409 q 253 400 272 384 q 398 276 398 198 q 398 109 332 50 q 266 -10 163 -10 q 129 -10 86 -3 q 43 3 -10 16 l 16 148 l 21 144 q 128 36 171 36 q 220 36 253 72 q 286 107 286 160 q 286 208 198 286 q 176 306 164 317 q 107 369 90 401 q 73 434 73 475 q 73 561 131 612 q 189 662 288 662 q 327 662 368 656 q 410 649 453 637 z"},"}":{"x_min":0,"x_max":500,"ha":500,"o":"m 74 721 l 96 721 q 152 721 184 716 q 215 710 237 697 q 265 681 276 650 q 287 620 287 550 l 287 429 q 287 359 312 330 q 338 302 400 302 q 403 302 410 302 q 417 303 421 303 l 421 216 q 417 216 410 216 q 403 217 400 217 q 338 217 313 188 q 287 159 287 89 l 287 -32 q 287 -102 276 -132 q 265 -162 237 -178 q 216 -191 184 -197 q 152 -202 96 -202 l 74 -202 l 74 -116 q 78 -116 85 -117 q 93 -117 96 -117 q 149 -117 168 -97 q 187 -76 187 -11 l 187 106 q 187 181 209 213 q 231 245 287 259 q 231 272 209 304 q 187 336 187 412 l 187 530 q 187 594 168 615 q 150 635 97 635 q 94 635 86 634 q 78 634 74 634 z"},"Z":{"x_min":0,"x_max":505,"ha":505,"o":"m 102 655 l 543 655 l 128 44 l 266 44 q 292 44 331 65 q 371 86 450 145 l 407 0 l -32 0 l 387 611 l 252 611 q 229 611 190 591 q 151 571 80 521 z"},"x":{"x_min":0,"x_max":444,"ha":444,"o":"m 187 475 l 255 294 l 281 329 q 292 344 299 357 q 305 371 305 378 q 305 385 304 390 q 303 395 301 398 l 275 445 q 308 457 334 464 q 359 470 375 470 q 396 470 409 459 q 422 448 422 430 q 422 412 407 391 q 392 371 353 337 l 266 262 l 330 98 l 330 98 q 341 69 360 69 l 395 69 q 364 31 337 11 q 311 -8 288 -8 q 271 -8 258 5 q 245 17 234 45 l 178 192 l 149 164 q 128 144 115 120 q 102 96 102 82 q 102 75 106 65 q 109 56 118 41 l 131 19 q 105 6 81 0 q 56 -7 34 -7 q 12 -7 0 4 q -12 15 -12 34 q -12 57 10 85 q 33 114 107 178 l 165 228 l 121 345 q 117 356 108 369 q 99 381 89 391 l 51 423 z"},")":{"x_min":0,"x_max":259,"ha":259,"o":"m 83 708 q 147 653 177 573 q 208 494 208 382 q 208 275 179 167 q 149 59 96 -33 q 59 -97 17 -140 q -26 -183 -78 -209 q 13 -62 64 124 q 115 310 115 493 q 115 547 107 600 q 99 654 83 708 z"},"&":{"x_min":0,"x_max":634,"ha":634,"o":"m 337 319 l 325 319 q 271 319 245 313 q 219 308 198 294 q 170 275 154 242 q 138 208 138 169 q 138 109 176 76 q 214 44 285 44 q 327 44 359 50 q 391 55 407 65 q 416 71 421 102 q 422 104 422 105 l 460 319 z m 491 639 l 470 516 q 447 534 412 565 q 350 620 324 620 q 278 620 250 580 q 221 541 221 476 q 221 417 250 393 q 279 370 357 370 l 660 370 l 651 319 l 578 319 l 568 255 q 555 171 537 131 q 520 90 488 62 q 445 23 387 4 q 330 -14 253 -14 q 142 -14 78 34 q 15 83 15 168 q 15 249 70 297 q 125 344 230 353 q 165 361 132 394 q 99 426 99 482 q 99 567 161 615 q 222 662 332 662 q 375 662 415 656 q 454 650 491 639 z"},"_":{"x_min":0,"x_max":500,"ha":500,"o":"m 0 -152 l 500 -152 l 500 -236 l 0 -236 z"},"v":{"x_min":0,"x_max":407,"ha":407,"o":"m 152 472 l 188 117 l 287 322 q 292 332 295 344 q 298 356 298 365 q 298 375 291 393 q 283 412 267 444 q 290 457 314 463 q 338 470 362 470 q 382 470 396 459 q 409 448 409 432 q 409 408 378 357 l 377 356 l 152 -10 l 104 -10 l 56 335 q 54 350 49 361 q 45 373 33 389 l 6 427 z"},"O":{"x_min":0,"x_max":595,"ha":595,"o":"m 455 439 q 455 529 426 575 q 396 621 340 621 q 289 621 249 579 q 209 537 181 453 q 161 393 150 328 q 139 264 139 207 q 139 121 170 74 q 200 28 257 28 q 304 28 341 64 q 378 101 407 176 q 430 236 443 305 q 455 374 455 439 z m 356 664 q 459 664 517 600 q 574 536 574 419 q 574 354 560 291 q 545 227 519 175 q 471 79 403 32 q 334 -15 244 -15 q 137 -15 78 49 q 20 114 20 233 q 20 299 37 367 q 54 434 84 489 q 133 578 200 621 q 268 664 356 664 z"},"(":{"x_min":0,"x_max":259,"ha":259,"o":"m 312 708 q 220 560 169 374 q 118 188 118 3 q 118 -49 126 -102 q 134 -155 150 -209 q 86 -156 56 -76 q 26 3 26 118 q 26 226 55 333 q 83 441 137 532 q 174 595 217 638 q 259 681 312 708 z"},"C":{"x_min":0,"x_max":530,"ha":530,"o":"m 555 638 l 538 517 l 430 601 q 417 612 404 616 q 392 621 377 621 q 282 621 215 510 q 149 398 149 229 q 149 137 182 88 q 215 38 277 38 q 296 38 312 43 q 329 47 342 56 l 483 156 l 437 14 q 390 2 349 -4 q 309 -10 274 -10 q 158 -10 92 57 q 26 123 26 239 q 26 328 51 405 q 75 481 123 542 q 171 603 237 635 q 302 666 381 666 q 429 666 473 659 q 517 652 555 638 z"},"W":{"x_min":0,"x_max":845,"ha":845,"o":"m 34 655 l 228 655 q 227 653 224 649 q 195 612 195 592 q 195 587 196 570 q 197 562 197 557 l 226 123 l 499 655 l 528 655 l 573 106 l 783 580 q 788 590 790 599 q 793 608 793 614 q 793 623 786 633 q 780 643 765 655 l 918 655 q 883 637 858 585 q 856 581 855 579 l 581 19 l 481 -12 l 443 425 l 234 19 l 131 -13 l 88 546 q 85 583 73 607 q 61 631 34 655 z"},"A":{"x_min":0,"x_max":532,"ha":532,"o":"m 302 552 l 172 296 l 328 296 z m 395 674 l 457 114 q 462 71 474 48 q 487 24 512 0 l 320 0 q 335 19 342 36 q 348 53 348 73 q 348 80 348 83 q 348 86 347 89 l 331 252 l 149 252 l 63 81 q 59 73 56 65 q 54 57 54 50 q 54 42 59 29 q 64 16 75 0 l -76 0 q -31 39 1 98 q 3 102 4 104 l 302 647 z"},"f":{"x_min":0,"x_max":289,"ha":289,"o":"m 449 691 l 428 583 l 348 645 q 333 658 324 661 q 315 665 304 665 q 271 665 252 624 q 232 583 215 463 l 325 463 l 320 421 l 208 421 l 153 90 q 125 -80 76 -143 q 28 -206 -63 -206 q -85 -206 -108 -201 q -130 -196 -154 -185 l -134 -80 l -71 -147 q -62 -157 -56 -160 q -49 -164 -42 -164 q -16 -164 -2 -134 q 12 -104 34 24 l 100 421 l 37 421 l 45 463 l 109 463 q 120 602 168 654 q 216 706 328 706 q 358 706 388 702 q 418 699 449 691 z"},"Q":{"x_min":0,"x_max":595,"ha":595,"o":"m 345 6 q 371 -9 416 -36 q 541 -111 587 -111 q 593 -111 604 -110 q 615 -109 645 -106 q 604 -155 567 -180 q 530 -205 499 -205 q 461 -205 403 -168 q 345 -131 208 -11 q 120 -3 70 61 q 21 126 21 234 q 21 302 38 369 q 54 435 84 489 q 133 578 200 621 q 268 664 358 664 q 461 664 519 600 q 576 536 576 421 q 576 269 514 158 q 453 47 345 6 z m 457 441 q 457 529 427 575 q 397 621 340 621 q 289 621 249 579 q 210 538 181 453 q 161 394 150 330 q 139 267 139 211 q 139 122 169 76 q 199 31 258 31 q 306 31 343 67 q 380 104 409 178 q 432 238 445 307 q 457 375 457 441 z"},"w":{"x_min":0,"x_max":653,"ha":653,"o":"m 167 472 l 198 152 l 343 463 l 391 463 l 432 131 l 519 320 q 525 333 529 346 q 532 358 532 366 q 532 372 531 377 q 530 382 528 386 l 499 445 q 529 458 554 465 q 579 472 592 472 q 616 472 629 460 q 642 449 642 428 q 642 419 637 404 q 631 390 623 375 l 394 -11 l 348 -11 l 310 295 l 173 -11 l 118 -11 l 71 329 q 68 348 63 364 q 57 380 50 389 l 18 427 z"},"-":{"x_min":0,"x_max":231,"ha":231,"o":"m -1 292 l 214 292 l 200 211 l -14 211 z"},"E":{"x_min":0,"x_max":475,"ha":475,"o":"m 94 655 l 488 655 l 468 531 q 447 545 415 570 q 359 613 334 613 l 244 613 l 201 352 l 268 352 q 305 352 387 407 l 396 413 l 365 241 l 361 245 q 288 308 265 308 l 194 308 l 149 43 l 228 43 q 287 43 407 140 q 420 150 427 156 l 377 0 l -14 0 q 12 24 26 50 q 41 77 49 127 l 123 565 q 123 566 124 569 q 125 581 125 584 q 125 603 101 644 q 96 651 94 655 z"},"s":{"x_min":0,"x_max":359,"ha":359,"o":"m 341 454 l 319 341 q 303 354 276 378 q 221 427 196 427 q 172 427 157 410 q 142 394 142 366 q 142 351 149 336 q 156 322 168 311 l 246 245 q 273 223 284 199 q 296 176 296 143 q 296 74 249 32 q 202 -10 123 -10 q 87 -10 53 -4 q 19 1 -13 13 l 8 123 q 20 112 41 93 q 105 33 132 33 q 159 33 177 53 q 196 72 196 101 q 196 119 187 134 q 178 150 154 171 l 87 231 q 62 253 51 276 q 40 298 40 325 q 40 391 91 431 q 142 470 228 470 q 263 470 291 466 q 319 462 341 454 z"},">":{"x_min":0,"x_max":833,"ha":833,"o":"m 129 574 l 704 337 l 704 259 l 129 23 l 129 112 l 585 298 l 129 484 z"},"l":{"x_min":0,"x_max":252,"ha":252,"o":"m 251 708 l 140 100 q 138 90 138 86 q 137 83 137 81 q 137 73 142 69 q 146 66 157 66 l 190 66 q 161 31 128 12 q 96 -7 63 -7 q 42 -7 30 3 q 19 12 19 31 q 19 34 21 44 q 22 54 23 59 l 112 558 q 112 560 113 564 q 118 585 118 599 q 118 607 115 616 q 112 626 106 636 l 83 672 z"},"8":{"x_min":0,"x_max":500,"ha":500,"o":"m 209 309 q 151 269 120 223 q 89 178 89 133 q 89 86 119 57 q 149 28 198 28 q 253 28 290 63 q 326 98 326 153 q 326 180 313 204 q 300 229 274 252 z m 313 366 q 372 328 401 282 q 431 236 431 184 q 431 98 366 41 q 301 -16 202 -16 q 104 -16 48 25 q -9 66 -9 137 q -9 193 38 239 q 84 285 189 329 q 129 372 104 409 q 78 447 78 491 q 78 568 137 617 q 197 665 295 665 q 375 665 425 627 q 474 590 474 530 q 474 479 434 438 q 394 397 313 366 z m 288 384 q 334 416 360 455 q 386 494 386 532 q 386 573 358 598 q 331 624 286 624 q 238 624 209 597 q 180 570 180 527 q 180 503 191 479 q 202 456 220 441 z"},"\\":{"x_min":0,"x_max":227,"ha":227,"o":"m 123 -211 l 48 706 l 109 706 l 188 -211 z"},"e":{"x_min":0,"x_max":403,"ha":403,"o":"m 162 244 l 134 244 q 130 216 128 202 q 127 188 127 178 q 127 124 145 99 q 162 73 200 73 q 230 73 271 86 q 312 100 358 125 q 310 62 252 26 q 194 -9 140 -9 q 77 -9 43 32 q 9 74 9 152 q 9 291 80 379 q 151 468 263 468 q 318 468 351 442 q 384 416 384 373 q 384 308 329 276 q 274 244 162 244 z m 137 271 q 210 281 240 308 q 269 334 269 389 q 269 412 260 423 q 252 434 234 434 q 204 434 178 391 q 152 347 137 271 z"},"b":{"x_min":0,"x_max":484,"ha":484,"o":"m 131 59 q 147 54 160 51 q 173 49 183 49 q 215 49 240 66 q 266 83 286 120 q 307 157 321 211 q 334 265 334 311 q 334 348 320 367 q 305 386 278 386 q 262 386 241 377 q 220 369 184 346 z m 246 707 l 186 358 q 237 417 276 443 q 314 468 353 468 q 399 468 423 431 q 447 394 447 321 q 447 258 427 194 q 407 130 374 85 q 339 38 298 15 q 257 -9 212 -9 q 179 -9 153 -1 q 127 6 103 23 l 9 -4 l 111 565 q 113 574 114 581 q 115 588 115 592 q 115 607 109 623 q 103 639 83 670 z"},"%":{"x_min":0,"x_max":551,"ha":551,"o":"m 403 264 q 368 264 344 211 q 321 158 321 76 q 321 45 331 31 q 340 16 361 16 q 396 16 418 69 q 441 123 441 204 q 441 234 431 249 q 422 264 403 264 z m 236 90 q 236 182 286 238 q 336 294 417 294 q 469 294 498 264 q 528 233 528 181 q 528 143 514 104 q 500 66 477 37 q 453 7 422 -6 q 392 -19 345 -19 q 294 -19 265 10 q 236 40 236 90 z m 468 607 l 494 581 l 70 52 l 43 76 z m 176 634 q 141 634 117 581 q 94 528 94 446 q 94 415 104 401 q 113 386 134 386 q 168 386 192 439 q 215 493 215 574 q 215 604 205 619 q 195 634 176 634 z m 9 460 q 9 551 59 608 q 110 665 191 665 q 242 665 271 635 q 301 604 301 551 q 301 513 287 475 q 274 437 250 408 q 226 378 195 365 q 165 352 118 352 q 67 352 38 381 q 9 410 9 460 z"},"m":{"x_min":0,"x_max":741,"ha":741,"o":"m 210 471 l 189 362 q 255 421 301 448 q 347 475 383 475 q 411 475 427 459 q 444 443 444 415 q 444 407 442 394 q 441 381 438 362 q 496 419 543 447 q 591 475 628 475 q 657 475 673 458 q 690 441 690 412 q 690 403 688 390 q 687 377 683 359 l 631 98 q 630 92 629 89 q 629 85 629 83 q 629 76 633 73 q 636 71 653 71 l 684 71 q 651 33 618 12 q 585 -8 556 -8 q 535 -8 523 3 q 511 14 511 32 q 511 41 512 49 q 513 58 515 70 l 563 334 q 563 335 563 337 q 567 359 567 367 q 567 377 560 382 q 554 387 541 387 q 522 387 494 376 q 465 366 434 347 l 372 0 l 256 0 l 318 334 q 319 344 320 352 q 321 360 321 367 q 321 377 314 382 q 308 387 295 387 q 280 387 253 378 q 227 369 187 350 l 125 0 l 15 0 l 72 329 q 72 332 74 341 q 76 350 76 356 q 76 367 73 378 q 69 390 63 400 l 45 430 z"},"#":{"x_min":0,"x_max":769,"ha":769,"o":"m 346 416 l 302 292 l 427 292 l 471 416 z m 359 713 l 452 713 l 377 500 l 499 500 l 575 713 l 668 713 l 593 500 l 735 500 l 706 416 l 563 416 l 519 293 l 670 293 l 640 209 l 490 209 l 414 -3 l 321 -3 l 397 209 l 274 209 l 197 -3 l 104 -3 l 180 209 l 34 209 l 64 293 l 209 293 l 253 416 l 99 416 l 129 500 l 283 500 z"},",":{"x_min":0,"x_max":250,"ha":250,"o":"m -8 -120 q 21 -88 39 -58 q 57 -28 63 0 l 60 0 q 39 0 28 11 q 16 22 16 42 q 16 74 34 94 q 52 114 81 114 q 111 114 126 99 q 141 84 141 54 q 141 -14 98 -65 q 55 -116 -8 -120 z"},"n":{"x_min":0,"x_max":498,"ha":498,"o":"m 210 471 l 189 362 q 255 421 301 448 q 347 475 383 475 q 412 475 428 458 q 444 441 444 412 q 444 403 442 390 q 440 377 437 359 l 386 98 q 385 92 384 89 q 384 85 384 83 q 384 76 387 73 q 391 71 408 71 l 439 71 q 406 33 373 12 q 340 -8 311 -8 q 290 -8 278 3 q 266 14 266 32 q 266 41 267 49 q 268 57 270 70 l 318 334 q 319 343 320 352 q 321 360 321 367 q 321 377 314 382 q 308 387 295 387 q 280 387 253 378 q 227 369 187 350 l 125 0 l 15 0 l 72 329 q 72 332 74 341 q 76 350 76 356 q 76 367 73 378 q 69 390 63 400 l 45 430 z"},"h":{"x_min":0,"x_max":498,"ha":498,"o":"m 249 708 l 184 362 q 250 421 296 448 q 343 475 379 475 q 407 475 424 458 q 440 441 440 412 q 440 403 438 390 q 437 377 433 359 l 382 98 q 381 92 380 89 q 380 85 380 83 q 380 76 384 73 q 387 71 404 71 l 435 71 q 402 33 369 12 q 336 -8 307 -8 q 286 -8 274 3 q 261 14 261 32 q 261 44 265 63 q 266 68 266 70 l 314 334 q 315 343 316 352 q 317 360 317 367 q 317 377 310 382 q 304 387 291 387 q 276 387 249 378 q 221 369 182 350 l 121 0 l 10 0 l 112 566 q 112 569 113 574 q 115 584 115 591 q 115 611 107 631 q 99 652 82 674 z"},"z":{"x_min":0,"x_max":428,"ha":428,"o":"m 76 463 l 420 463 l 96 78 q 110 82 122 83 q 133 85 143 85 l 252 87 q 277 87 290 90 q 304 94 315 102 l 378 147 q 366 100 352 64 q 338 28 328 17 q 318 6 301 2 q 284 -2 238 -2 q 224 -2 188 0 q 179 0 174 0 l 90 2 q 51 3 22 4 q 19 4 19 4 q 7 4 -6 3 q -19 1 -35 -1 l 284 376 l 157 376 q 140 376 129 373 q 119 370 111 363 l 49 304 z"},"B":{"x_min":0,"x_max":526,"ha":526,"o":"m 188 308 l 144 41 l 218 41 q 268 41 303 86 q 338 131 338 198 q 338 249 307 279 q 276 308 223 308 z m 239 613 l 195 347 l 229 347 q 297 347 335 392 q 373 436 373 516 q 373 563 351 588 q 330 613 289 613 z m 90 655 l 324 655 q 409 655 454 619 q 498 583 498 514 q 498 430 444 380 q 390 331 294 327 q 371 325 417 285 q 462 246 462 182 q 462 133 435 91 q 409 48 363 24 q 339 11 306 6 q 273 0 208 0 l -19 0 q 8 23 22 51 q 37 79 44 121 l 119 563 q 120 567 120 571 q 120 575 120 581 q 120 594 113 610 q 106 627 90 655 z"},"K":{"x_min":0,"x_max":569,"ha":569,"o":"m 441 655 l 637 655 q 612 641 587 623 q 562 605 536 582 l 315 385 l 462 88 q 479 53 496 32 q 513 12 535 0 l 377 0 l 212 350 l 456 591 q 464 599 466 603 q 468 607 468 612 q 468 620 461 631 q 455 641 441 655 z m 97 655 l 293 655 q 248 609 236 538 q 235 535 235 533 l 163 108 q 162 99 161 91 q 160 84 160 77 q 160 61 167 42 q 174 24 190 0 l -9 0 q 18 26 32 52 q 46 79 53 120 l 125 545 q 126 554 127 562 q 128 570 128 577 q 128 592 121 609 q 114 626 97 655 z"},"R":{"x_min":0,"x_max":544,"ha":544,"o":"m 242 612 l 198 348 l 254 348 q 312 348 351 395 q 390 442 390 511 q 390 562 369 587 q 347 612 303 612 z m 94 655 l 316 655 q 419 655 466 620 q 513 586 513 511 q 513 435 460 383 q 406 330 322 325 l 433 95 q 444 72 461 49 q 479 25 503 0 l 348 0 l 195 332 l 156 97 q 155 92 154 86 q 154 80 154 70 q 154 54 161 37 q 169 20 184 0 l -11 0 q 14 26 28 55 q 42 83 49 125 l 120 545 q 122 555 122 564 q 123 573 123 581 q 123 600 116 617 q 110 633 94 655 z"},"T":{"x_min":0,"x_max":505,"ha":505,"o":"m 51 655 l 567 655 l 542 516 q 490 569 460 591 q 430 613 411 613 l 358 613 l 276 111 q 273 96 272 85 q 271 75 271 69 q 271 54 278 37 q 286 20 301 0 l 102 0 q 126 21 140 47 q 153 72 162 124 l 245 613 l 192 613 q 173 613 135 591 q 96 568 26 516 z"},"P":{"x_min":0,"x_max":486,"ha":486,"o":"m 87 655 l 332 655 q 420 655 466 615 q 512 575 512 498 q 512 411 456 351 q 399 290 317 290 q 289 290 262 297 q 236 304 211 318 q 216 317 222 316 q 228 316 239 316 q 307 316 347 367 q 387 418 387 504 q 387 559 365 589 q 343 619 303 619 l 241 619 l 154 108 q 154 107 153 105 q 150 86 150 77 q 150 61 157 42 q 164 24 180 0 l -19 0 q 8 26 22 53 q 37 80 44 120 l 115 545 q 117 554 117 562 q 118 570 118 577 q 118 592 111 609 q 104 626 87 655 z"},"|":{"x_min":0,"x_max":500,"ha":500,"o":"m 207 764 l 294 764 l 294 -236 l 207 -236 z"},"t":{"x_min":0,"x_max":319,"ha":319,"o":"m 137 579 l 247 579 l 223 463 l 337 463 l 330 421 l 216 421 l 162 134 q 160 124 159 114 q 158 105 158 97 q 158 87 166 82 q 173 76 187 76 q 204 76 232 85 q 260 94 293 111 q 250 56 199 24 q 148 -9 108 -9 q 78 -9 57 8 q 36 25 36 49 q 36 61 37 73 q 39 85 41 97 l 104 421 l 45 421 l 54 463 l 112 463 z"},"M":{"x_min":0,"x_max":773,"ha":773,"o":"m 92 655 l 241 655 l 356 173 l 646 655 l 784 655 q 758 626 746 603 q 733 580 729 553 l 657 103 q 656 97 655 91 q 655 84 655 73 q 655 56 662 37 q 669 19 684 0 l 485 0 q 534 42 549 128 q 550 133 550 135 l 607 484 l 316 0 l 281 0 l 169 489 l 104 101 q 104 99 103 94 q 100 74 100 66 q 100 56 108 40 q 116 24 133 0 l -9 0 q 17 32 31 60 q 44 87 50 120 l 125 570 q 125 574 126 578 q 126 582 126 588 q 126 603 117 619 q 109 636 92 655 z"},"g":{"x_min":0,"x_max":509,"ha":509,"o":"m 113 19 q 65 -24 51 -45 q 37 -66 37 -85 q 37 -118 74 -138 q 110 -157 173 -157 q 243 -157 290 -129 q 337 -100 337 -62 q 337 -46 324 -36 q 312 -26 280 -19 z m 239 438 q 199 438 177 402 q 155 366 155 300 q 155 253 172 228 q 189 203 221 203 q 260 203 283 238 q 306 272 306 331 q 306 383 289 410 q 271 438 239 438 z m 525 473 l 505 379 l 363 429 q 387 409 400 383 q 412 356 412 325 q 412 254 358 211 q 303 167 214 167 q 209 167 202 168 q 195 168 186 170 q 175 158 169 147 q 163 136 163 128 q 163 117 169 111 q 175 105 197 101 l 362 64 q 413 53 431 35 q 448 17 448 -18 q 448 -94 368 -149 q 287 -204 170 -204 q 73 -204 8 -172 q -58 -141 -58 -99 q -58 -71 -28 -47 q 2 -23 104 22 q 80 31 67 46 q 53 62 53 80 q 53 113 152 160 q 167 167 176 171 q 112 181 78 217 q 43 253 43 310 q 43 381 98 427 q 152 472 238 472 q 273 472 302 465 q 331 457 353 442 z"},"j":{"x_min":0,"x_max":262,"ha":262,"o":"m 218 466 l 143 43 q 119 -93 72 -150 q 24 -207 -64 -207 q -90 -207 -114 -202 q -137 -198 -159 -189 l -139 -79 l -64 -155 q -63 -156 -62 -157 q -52 -167 -42 -167 q -19 -167 -5 -135 q 9 -104 27 1 l 80 316 q 83 329 84 340 q 85 351 85 358 q 85 366 83 375 q 80 383 74 394 l 55 429 z m 132 630 q 132 658 151 675 q 170 691 203 691 q 230 691 245 678 q 260 665 260 641 q 260 612 242 597 q 225 582 191 582 q 162 582 147 594 q 132 606 132 630 z"},"i":{"x_min":0,"x_max":252,"ha":252,"o":"m 213 466 l 138 100 q 136 93 135 88 q 135 83 135 81 q 135 73 139 69 q 144 66 155 66 l 188 66 q 159 31 126 12 q 94 -7 61 -7 q 39 -7 28 3 q 17 12 17 31 q 17 35 19 48 q 21 55 21 59 l 70 316 q 71 320 72 327 q 76 346 76 357 q 76 373 51 419 q 48 425 46 429 z m 123 630 q 123 658 142 675 q 161 691 194 691 q 221 691 236 678 q 250 666 250 641 q 250 612 232 597 q 215 582 181 582 q 152 582 137 594 q 123 606 123 630 z"},"y":{"x_min":0,"x_max":407,"ha":407,"o":"m 151 468 l 194 123 l 289 327 q 293 335 295 344 q 297 352 297 361 q 297 371 295 380 q 292 390 289 396 l 260 446 q 291 457 314 462 q 338 468 355 468 q 377 468 391 457 q 406 447 406 431 q 406 409 378 362 l 375 356 l 103 -117 q 79 -160 48 -182 q 18 -204 -18 -204 q -37 -204 -56 -200 q -75 -197 -95 -189 l -74 -67 l -20 -118 q -13 -125 -5 -128 q 2 -132 11 -132 q 23 -132 36 -123 q 48 -114 57 -99 l 113 1 l 57 333 q 52 360 48 373 q 43 386 36 393 l 0 428 z"},"@":{"x_min":0,"x_max":1000,"ha":1000,"o":"m 573 138 q 546 96 511 76 q 475 56 425 56 q 351 56 311 98 q 272 141 272 220 q 272 334 339 413 q 407 492 502 492 q 545 492 575 475 q 604 458 623 423 l 650 475 l 725 475 l 653 189 q 652 187 652 183 q 649 169 649 165 q 649 146 662 135 q 675 124 696 124 q 721 124 748 139 q 776 154 800 180 q 835 217 854 267 q 872 316 872 372 q 872 496 781 573 q 689 650 542 650 q 475 650 417 635 q 359 620 312 589 q 224 534 176 447 q 128 360 128 254 q 128 102 230 10 q 333 -81 503 -81 q 584 -81 661 -57 q 738 -33 803 12 l 836 -36 q 763 -91 680 -119 q 598 -147 507 -147 q 413 -147 335 -124 q 258 -100 198 -54 q 123 3 85 80 q 48 157 48 255 q 48 335 73 408 q 99 480 148 541 q 220 628 321 674 q 421 719 545 719 q 626 719 699 697 q 771 675 823 635 q 888 585 920 520 q 952 455 952 373 q 952 294 920 226 q 889 157 830 110 q 796 83 757 69 q 717 55 675 55 q 623 55 598 75 q 573 95 573 136 z m 602 345 q 595 386 572 409 q 549 431 512 431 q 450 431 406 368 q 362 306 362 217 q 362 169 384 143 q 406 117 447 117 q 491 117 527 150 q 562 182 575 234 z"},".":{"x_min":0,"x_max":250,"ha":250,"o":"m 87 115 q 115 115 131 102 q 146 89 146 66 q 146 29 128 10 q 111 -8 75 -8 q 49 -8 35 6 q 21 20 21 45 q 21 77 39 96 q 57 115 87 115 z"},"p":{"x_min":0,"x_max":484,"ha":484,"o":"m 126 59 q 143 54 155 51 q 167 49 178 49 q 210 49 235 66 q 260 83 281 120 q 302 158 316 212 q 330 266 330 311 q 330 348 316 367 q 301 386 274 386 q 258 386 237 377 q 216 369 180 346 z m 201 469 l 183 360 q 240 422 276 445 q 312 468 349 468 q 396 468 419 431 q 443 394 443 321 q 443 258 423 194 q 403 130 370 85 q 335 39 294 15 q 253 -9 207 -9 q 184 -9 163 -3 q 141 3 120 15 l 96 -119 q 95 -128 94 -134 q 94 -140 94 -145 q 94 -154 101 -168 q 107 -182 123 -206 l -70 -206 q -39 -169 -26 -144 q -13 -119 -8 -89 l 64 328 q 65 334 66 343 q 67 351 67 360 q 67 369 65 377 q 63 386 59 394 l 38 430 z"},"X":{"x_min":0,"x_max":586,"ha":586,"o":"m 89 655 l 282 655 q 270 642 264 631 q 258 620 258 609 q 258 603 260 597 q 261 590 264 584 l 334 419 l 468 595 q 472 600 474 606 q 476 612 476 617 q 476 623 471 632 q 465 641 453 655 l 637 655 q 611 644 585 623 q 560 603 531 570 l 355 369 l 469 100 l 469 99 q 497 35 536 0 l 335 0 q 349 18 355 30 q 362 42 362 48 q 362 53 361 59 q 359 64 355 75 l 269 280 l 100 66 q 96 61 93 53 q 90 46 90 42 q 90 35 96 25 q 102 14 115 0 l -61 0 q -35 19 -14 37 q 6 55 24 75 l 248 329 l 149 576 q 134 612 121 628 q 108 645 89 655 z"},"*":{"x_min":0,"x_max":336,"ha":336,"o":"m 209 709 l 269 709 l 211 558 l 318 682 l 352 641 l 212 556 l 370 584 l 359 528 l 212 554 l 321 466 l 283 433 l 211 553 l 209 402 l 153 402 l 209 552 l 100 432 l 64 470 l 206 554 l 51 526 l 59 584 l 207 555 l 100 650 l 143 686 l 209 557 z"},"Y":{"x_min":0,"x_max":507,"ha":507,"o":"m 17 655 l 207 655 q 195 641 189 629 q 183 618 183 612 q 183 607 185 600 q 186 593 189 584 l 275 319 l 454 595 q 457 600 458 604 q 460 608 460 613 q 460 622 454 632 q 449 642 436 655 l 611 655 l 605 650 q 540 603 512 564 l 296 266 l 269 97 q 268 90 267 83 q 266 76 266 67 q 266 54 273 37 q 280 20 294 0 l 93 0 q 118 27 133 53 q 147 79 151 103 l 178 265 l 75 572 q 68 592 54 613 q 40 633 17 655 z"},"c":{"x_min":0,"x_max":398,"ha":398,"o":"m 398 458 l 377 341 l 279 413 q 265 423 258 426 q 251 428 243 428 q 204 428 167 350 q 131 271 131 172 q 131 117 149 93 q 167 68 208 68 q 234 68 274 82 q 314 97 360 123 q 313 58 256 22 q 199 -13 143 -13 q 80 -13 46 29 q 12 72 12 151 q 12 210 32 270 q 52 330 89 383 q 122 429 169 451 q 216 472 285 472 q 313 472 341 469 q 369 465 398 458 z"},"!":{"x_min":0,"x_max":250,"ha":250,"o":"m 88 110 q 115 110 133 93 q 150 77 150 51 q 150 23 131 7 q 112 -9 79 -9 q 49 -9 33 5 q 17 19 17 45 q 17 73 37 92 q 57 110 88 110 z m 235 565 l 135 160 l 76 160 l 104 550 q 109 624 125 643 q 140 662 178 662 q 214 662 230 652 q 246 643 246 621 q 246 612 238 580 q 236 570 235 565 z"},"/":{"x_min":0,"x_max":227,"ha":227,"o":"m 212 706 l 273 706 l -31 -211 l -95 -211 z"},"[":{"x_min":0,"x_max":259,"ha":259,"o":"m 141 711 l 298 711 q 265 682 246 663 q 227 644 222 635 q 216 625 211 596 q 210 593 210 591 l 97 -58 q 96 -64 94 -76 q 90 -102 90 -108 q 90 -127 102 -152 q 114 -177 138 -209 l -15 -209 z"},"6":{"x_min":0,"x_max":500,"ha":500,"o":"m 159 316 q 148 276 143 236 q 138 196 138 157 q 138 92 158 59 q 178 27 218 27 q 267 27 296 77 q 325 127 325 213 q 325 270 299 297 q 273 324 219 324 q 208 324 193 322 q 179 320 159 316 z m 529 607 q 504 612 483 615 q 462 618 445 618 q 343 618 269 548 q 194 479 168 357 q 199 368 225 374 q 250 379 271 379 q 352 379 399 333 q 447 288 447 210 q 447 110 384 46 q 321 -18 223 -18 q 128 -18 76 37 q 24 93 24 194 q 24 295 59 393 q 95 492 155 559 q 203 612 259 639 q 315 665 380 665 q 425 665 464 650 q 502 635 529 607 z"},"r":{"x_min":0,"x_max":347,"ha":347,"o":"m 209 468 l 186 339 q 245 421 272 444 q 299 467 326 467 q 336 467 345 464 q 354 461 361 455 l 341 336 q 325 347 306 354 q 287 360 268 360 q 251 360 231 353 q 211 345 183 328 l 123 0 l 12 0 l 72 328 q 73 336 74 342 q 75 349 75 350 q 75 369 68 387 q 60 405 43 428 z"},"2":{"x_min":0,"x_max":500,"ha":500,"o":"m 195 172 l 95 93 l 273 93 q 305 93 334 108 q 363 123 399 158 l 372 0 l -53 0 l 166 221 q 257 312 303 387 q 349 461 349 516 q 349 563 324 591 q 298 618 255 618 q 239 618 222 610 q 204 601 182 583 l 76 494 l 105 645 q 166 654 208 658 q 250 663 269 663 q 370 663 424 625 q 478 586 478 514 q 478 396 195 172 z"},"{":{"x_min":0,"x_max":500,"ha":500,"o":"m 427 721 l 427 634 q 423 634 415 634 q 407 635 404 635 q 351 635 332 615 q 313 594 313 530 l 313 412 q 313 336 292 304 q 270 272 214 259 q 270 246 291 214 q 313 182 313 106 l 313 -11 q 313 -76 332 -96 q 352 -117 405 -117 q 408 -117 416 -117 q 423 -116 427 -116 l 427 -202 l 396 -202 q 346 -202 315 -196 q 284 -190 263 -178 q 235 -162 224 -131 q 213 -101 213 -32 l 213 89 q 213 159 187 188 q 162 217 100 217 q 97 217 90 216 q 83 216 79 216 l 79 303 q 83 303 90 302 q 97 302 100 302 q 162 302 187 331 q 213 359 213 429 l 213 550 q 213 621 224 651 q 235 681 263 697 q 285 710 316 716 q 348 721 405 721 z"},"9":{"x_min":0,"x_max":500,"ha":500,"o":"m -36 47 q -1 42 20 41 q 42 39 56 39 q 161 39 226 101 q 292 162 326 292 q 294 279 267 273 q 239 267 215 267 q 142 267 94 316 q 47 364 47 440 q 47 538 112 602 q 178 667 278 667 q 366 667 418 608 q 470 548 470 448 q 470 356 439 263 q 407 169 355 106 q 308 48 248 18 q 188 -12 120 -12 q 77 -12 38 2 q 0 17 -36 47 z m 335 330 q 346 396 350 427 q 353 459 353 483 q 353 554 333 588 q 314 622 273 622 q 226 622 196 570 q 165 518 165 436 q 165 382 194 351 q 222 321 273 321 q 283 321 298 323 q 313 325 335 330 z"}," ":{"x_min":0,"x_max":250,"ha":250,"o":""},"I":{"x_min":0,"x_max":269,"ha":269,"o":"m 91 655 l 287 655 q 242 609 230 538 q 229 534 229 533 l 157 108 q 155 98 155 91 q 154 83 154 77 q 154 61 161 42 q 168 24 184 0 l -15 0 q 12 26 26 52 q 40 79 47 120 l 119 545 q 121 554 121 562 q 122 570 122 577 q 122 592 115 609 q 108 626 91 655 z"},"H":{"x_min":0,"x_max":618,"ha":618,"o":"m 92 655 l 288 655 q 264 630 250 604 q 237 578 230 533 l 202 361 l 435 361 l 465 548 q 467 562 468 568 q 469 575 469 579 q 469 597 462 615 q 455 634 440 655 l 634 655 q 589 614 576 537 l 576 536 l 505 111 q 503 103 502 94 q 501 85 501 76 q 501 61 508 41 q 515 21 529 0 l 332 0 q 359 28 373 55 q 388 83 394 123 l 426 317 l 194 317 l 158 108 q 156 100 156 93 q 155 85 155 77 q 155 60 162 42 q 169 23 184 0 l -14 0 q 13 26 27 52 q 41 79 48 120 l 119 545 q 119 546 120 548 q 123 569 123 577 q 123 592 116 609 q 109 626 92 655 z"},"4":{"x_min":0,"x_max":500,"ha":500,"o":"m 323 553 l 84 257 l 270 257 z m 438 667 l 367 257 l 455 257 l 435 175 l 355 175 l 345 103 q 345 101 344 97 q 342 79 342 69 q 342 58 348 40 q 354 22 366 0 l 184 0 q 208 26 222 52 q 236 78 243 117 l 254 175 l -34 175 q 87 333 180 445 q 272 557 345 636 z"},"~":{"x_min":0,"x_max":833,"ha":833,"o":"m 747 383 l 747 293 q 697 258 651 241 q 604 224 561 224 q 540 224 516 228 q 492 232 468 241 q 456 245 431 254 q 327 290 275 290 q 235 290 190 271 q 145 253 87 212 l 87 303 q 139 338 186 356 q 232 373 276 373 q 306 373 337 367 q 368 361 419 344 q 426 342 440 336 q 520 308 562 308 q 604 308 648 326 q 693 344 747 383 z"},"D":{"x_min":0,"x_max":611,"ha":611,"o":"m 238 612 l 141 43 l 215 43 q 271 43 314 66 q 358 89 389 135 q 422 185 445 267 q 467 349 467 428 q 467 515 424 563 q 380 612 303 612 z m 86 655 l 335 655 q 462 655 525 595 q 587 535 587 411 q 587 318 555 235 q 523 152 465 94 q 415 44 354 22 q 293 0 201 0 l -20 0 q 7 26 21 53 q 36 80 43 120 l 114 545 q 116 554 116 562 q 117 570 117 577 q 117 592 110 609 q 104 626 86 655 z"},"^":{"x_min":0,"x_max":1000,"ha":1000,"o":"m 447 713 l 553 713 l 795 439 l 694 439 l 500 633 l 305 439 l 204 439 z"},"0":{"x_min":0,"x_max":500,"ha":500,"o":"m 357 500 q 357 559 340 588 q 322 618 288 618 q 261 618 239 594 q 216 570 200 525 q 170 443 153 341 q 136 239 136 141 q 136 88 154 59 q 171 31 203 31 q 235 31 260 61 q 285 92 302 151 q 328 242 343 334 q 357 427 357 500 z m 303 667 q 382 667 426 607 q 470 547 470 439 q 470 366 453 289 q 437 212 405 142 q 371 66 313 24 q 255 -18 186 -18 q 109 -18 65 41 q 22 99 22 203 q 22 294 43 382 q 65 469 103 535 q 140 598 192 633 q 244 667 303 667 z"},"F":{"x_min":0,"x_max":451,"ha":451,"o":"m 92 655 l 484 655 l 464 531 q 443 545 411 570 q 355 613 330 613 l 245 613 l 202 352 l 264 352 q 301 352 383 407 l 392 413 l 361 241 l 357 245 q 284 308 261 308 l 194 308 l 156 92 q 154 85 154 79 q 153 73 153 69 q 153 53 178 13 q 183 5 186 0 l -16 0 q 11 24 25 51 q 40 78 48 127 l 122 565 q 122 566 123 569 q 124 581 124 584 q 124 602 101 640 q 95 649 92 655 z"},"`":{"x_min":0,"x_max":500,"ha":500,"o":"m 197 668 l 324 668 l 355 529 l 332 529 z"},"k":{"x_min":0,"x_max":456,"ha":456,"o":"m 348 333 l 271 284 l 353 94 l 354 92 q 365 68 388 68 l 416 68 q 373 25 348 10 q 322 -6 299 -6 q 283 -6 272 3 q 262 13 253 36 l 174 251 l 174 257 l 227 296 q 277 333 296 355 q 314 377 314 397 q 314 402 312 407 q 311 413 309 417 l 295 445 q 319 455 345 460 q 371 466 396 466 q 418 466 429 456 q 441 447 441 429 q 441 408 424 389 q 408 370 348 333 z m 248 707 l 119 0 l 11 0 l 115 577 q 115 579 117 586 q 118 594 118 598 q 118 606 116 615 q 114 624 110 631 l 90 669 z"},"u":{"x_min":0,"x_max":498,"ha":498,"o":"m 211 468 l 148 134 q 148 133 147 129 q 143 110 143 98 q 143 88 151 82 q 159 75 172 75 q 188 75 215 86 q 243 97 278 117 l 335 440 l 451 468 l 386 96 q 385 92 384 87 q 383 82 383 80 q 383 73 388 71 q 393 68 406 68 l 436 68 q 396 27 365 10 q 335 -8 308 -8 q 287 -8 276 3 q 264 14 264 33 q 264 41 268 59 q 268 61 268 62 l 276 104 q 221 48 173 20 q 125 -8 85 -8 q 55 -8 39 8 q 22 23 22 51 q 22 61 26 83 q 28 93 29 97 l 72 327 q 72 328 73 330 q 76 347 76 354 q 76 367 70 383 q 63 398 46 427 z"},"]":{"x_min":0,"x_max":259,"ha":259,"o":"m 99 710 l 252 710 l 96 -209 l -61 -209 q -25 -177 -7 -159 q 11 -142 16 -133 q 21 -124 25 -99 q 26 -92 27 -89 l 140 560 q 143 577 145 591 q 147 604 147 610 q 147 628 135 653 q 123 678 99 710 z"},"U":{"x_min":0,"x_max":595,"ha":595,"o":"m 82 655 l 279 655 q 253 635 240 611 q 226 587 220 550 l 161 195 q 158 177 157 166 q 156 154 156 145 q 156 89 188 63 q 220 36 286 36 q 354 36 388 70 q 422 103 436 186 l 499 556 q 500 565 501 573 q 502 582 502 589 q 502 604 496 620 q 490 636 476 655 l 629 655 q 603 622 590 595 q 577 569 572 541 l 519 231 q 518 226 516 214 q 495 87 441 41 q 410 15 363 1 q 316 -13 259 -13 q 156 -13 98 30 q 40 73 40 149 q 40 167 42 185 q 43 203 47 222 l 107 558 q 108 565 109 572 q 110 579 110 586 q 110 601 104 617 q 97 633 82 655 z"},"o":{"x_min":0,"x_max":479,"ha":479,"o":"m 323 342 q 323 388 306 414 q 290 440 260 440 q 234 440 212 418 q 190 397 173 356 q 150 301 138 242 q 126 183 126 125 q 126 75 142 48 q 158 21 188 21 q 214 21 237 42 q 259 64 276 105 q 299 159 311 220 q 323 280 323 342 z m 271 475 q 354 475 398 431 q 442 388 442 306 q 442 255 429 205 q 416 155 393 116 q 352 46 300 16 q 249 -15 172 -15 q 96 -15 53 31 q 10 77 10 159 q 10 207 21 253 q 32 299 51 334 q 91 406 145 440 q 199 475 271 475 z"},"N":{"x_min":0,"x_max":609,"ha":609,"o":"m 86 655 l 219 655 l 454 185 l 519 563 q 520 566 520 570 q 520 574 520 583 q 520 603 512 620 q 505 638 488 655 l 634 655 q 611 635 598 611 q 586 588 578 544 l 479 -8 l 426 -8 l 169 506 l 100 105 l 99 100 q 95 73 95 68 q 95 56 103 39 q 110 23 127 0 l -16 0 q 9 27 23 57 q 38 87 47 141 l 117 555 q 119 564 119 572 q 120 579 120 585 q 120 601 112 618 q 104 635 86 655 z"},"+":{"x_min":0,"x_max":833,"ha":833,"o":"m 375 596 l 458 596 l 458 339 l 709 339 l 709 258 l 458 258 l 458 0 l 375 0 l 375 258 l 124 258 l 124 339 l 375 339 z"},"G":{"x_min":0,"x_max":582,"ha":582,"o":"m 588 639 l 567 517 q 558 524 541 538 q 445 617 403 617 q 349 617 303 591 q 257 565 222 515 q 190 469 169 391 q 148 312 148 233 q 148 133 189 83 q 230 33 313 33 q 327 33 340 34 q 353 35 365 37 l 386 184 q 386 188 387 192 q 387 197 387 200 q 387 218 361 264 l 358 269 l 559 269 q 505 221 494 146 q 493 143 493 141 l 472 15 q 416 2 367 -5 q 318 -11 278 -11 q 155 -11 92 53 q 29 118 29 245 q 29 433 133 549 q 236 666 403 666 q 451 666 497 659 q 542 653 588 639 z"},"q":{"x_min":0,"x_max":479,"ha":479,"o":"m 330 401 q 319 405 308 407 q 296 409 286 409 q 256 409 233 398 q 211 387 194 364 q 166 327 147 268 q 129 208 129 151 q 129 111 141 92 q 153 73 178 73 q 194 73 217 82 q 239 91 275 112 z m 450 467 l 352 -88 q 349 -106 348 -118 q 346 -130 346 -134 q 346 -138 346 -140 q 347 -143 347 -144 q 350 -157 356 -173 q 363 -189 373 -206 l 179 -206 q 206 -175 218 -152 q 230 -128 235 -103 l 273 98 q 219 39 182 15 q 145 -9 110 -9 q 62 -9 37 27 q 11 63 11 131 q 11 203 33 268 q 55 333 98 387 q 132 430 169 450 q 207 470 253 470 q 281 470 306 462 q 331 454 355 436 z"},"d":{"x_min":0,"x_max":484,"ha":484,"o":"m 325 405 q 314 410 304 412 q 294 414 284 414 q 254 414 230 400 q 207 386 186 356 q 158 315 141 258 q 124 201 124 148 q 124 114 138 95 q 153 76 179 76 q 193 76 214 84 q 236 92 274 112 z m 483 708 l 491 708 l 381 101 q 379 94 379 89 q 378 84 378 82 q 378 75 382 72 q 386 69 395 69 l 432 69 q 396 30 364 11 q 332 -9 305 -9 q 284 -9 272 2 q 260 14 260 34 q 260 40 260 44 q 261 48 262 54 l 272 101 q 217 42 179 16 q 142 -9 110 -9 q 62 -9 35 27 q 9 63 9 130 q 9 195 27 259 q 46 322 79 370 q 112 419 156 445 q 199 470 248 470 q 269 470 289 464 q 310 458 333 445 l 356 573 q 356 574 356 575 q 359 590 359 601 q 359 610 357 618 q 354 626 350 634 l 328 674 z"},"1":{"x_min":0,"x_max":500,"ha":500,"o":"m 375 678 l 282 108 q 282 105 280 99 q 277 81 277 72 q 277 57 285 39 q 293 21 311 0 l 109 0 q 135 29 149 59 q 163 88 171 133 l 239 541 l 87 519 q 197 573 266 611 q 335 649 375 678 z"},"5":{"x_min":0,"x_max":500,"ha":500,"o":"m 133 657 l 495 657 l 480 565 l 171 565 l 144 408 q 168 413 190 415 q 212 417 232 417 q 329 417 381 370 q 433 322 433 235 q 433 125 356 56 q 280 -12 156 -12 q 118 -12 75 -3 q 33 5 -22 24 l 5 166 q 20 150 45 121 q 120 36 166 36 q 227 36 268 92 q 309 148 309 231 q 309 295 273 329 q 237 364 170 364 q 150 364 127 362 q 104 360 80 356 z"}}}
